<?xml version="1.0" encoding="utf-8"?>
<!-- Generator: Adobe Illustrator 26.0.3, SVG Export Plug-In . SVG Version: 6.00 Build 0)  -->
<svg version="1.0" id="Layer_1" xmlns="http://www.w3.org/2000/svg" xmlns:xlink="http://www.w3.org/1999/xlink" x="0px" y="0px"
	 viewBox="0 0 285.3 228.4" style="enable-background:new 0 0 285.3 228.4;" xml:space="preserve">
<style type="text/css">
	.st0{fill:#231F20;}
	.st1{fill:#FFFFFF;}
	.st2{fill:url(#SVGID_1_);}
	.st3{fill:url(#SVGID_00000169551426738591588550000005018682078682500525_);}
	.st4{fill:none;}
</style>
<path class="st0" d="M55.8,163.8c-0.5-0.6-1.2-1-2-1c-1.8,0.1-3.1,1.5-3.1,3.3l0,0c-0.1,1.7,1.2,3.2,2.9,3.3c0,0,0,0,0,0h0.2
	c0.9,0,1.8-0.4,2.3-1.1l0.7,0.6c-0.7,0.9-1.8,1.5-3,1.4c-2.3-0.1-4.1-2.1-4-4.4c0.1-2.2,1.8-3.9,4-4c1.1,0,2.1,0.5,2.8,1.3
	L55.8,163.8z"/>
<path class="st0" d="M78.1,167.1c0,1.7-0.8,3.3-3,3.3c-2.2,0-3-1.5-3-3.3v-5H73v4.9c0,1.3,0.5,2.5,2.1,2.5s2.1-1.2,2.1-2.5v-4.7h1
	L78.1,167.1z"/>
<path class="st0" d="M58.3,162.1c0.4,0,0.6,0.3,0.6,0.6c0,0.4-0.2,0.7-0.6,0.7c-0.3,0-0.6-0.2-0.7-0.5c0,0,0-0.1,0-0.1
	C57.7,162.4,58,162.1,58.3,162.1C58.3,162.1,58.3,162.1,58.3,162.1 M57.9,164.8h0.9v5.4h-0.9V164.8z"/>
<path class="st0" d="M63.2,165.6h-1.6v2.7c0,0.7,0,1.2,0.8,1.2c0.3,0,0.5-0.1,0.8-0.2v0.8c-0.3,0.1-0.7,0.2-1,0.2
	c-1.3,0-1.5-0.7-1.5-1.8v-2.9h-1.1v-0.7h1.2v-1.5h0.8v1.5h1.6L63.2,165.6z"/>
<path class="st0" d="M66.7,171.4c-0.3,0.9-0.7,1.5-1.8,1.5c-0.3,0-0.5,0-0.8-0.1l0.1-0.8c0.2,0.1,0.4,0.1,0.6,0.1
	c0.6,0,0.8-0.4,1-0.9l0.4-1l-2.2-5.4h1l1.6,4.2l0,0l1.6-4.2h1L66.7,171.4z"/>
<path class="st0" d="M79.3,166.1v-1.3h0.8v0.9l0,0c0.4-0.6,1-1,1.8-1c1-0.1,1.9,0.7,2,1.8c0,0.1,0,0.3,0,0.4v3.3H83V167
	c0-0.9-0.4-1.4-1.2-1.4c-1.1,0-1.6,0.8-1.6,2v2.6h-0.9L79.3,166.1z"/>
<path class="st0" d="M85.6,162.1c0.4,0,0.6,0.3,0.6,0.6c0,0.4-0.4,0.6-0.7,0.6c-0.3,0-0.5-0.3-0.6-0.6
	C85,162.4,85.3,162.1,85.6,162.1 M85.2,164.8h0.9v5.4h-0.9L85.2,164.8z"/>
<polygon class="st0" points="90.2,170.1 89.3,170.1 87.1,164.8 88.1,164.8 89.8,169 89.8,169 91.4,164.8 92.3,164.8 "/>
<path class="st0" d="M103,168.7c0.3,0.4,0.8,0.7,1.4,0.7c0.6,0,1.2-0.2,1.2-0.8s-0.6-0.7-1.1-0.8c-1-0.2-1.9-0.4-1.9-1.5
	s1-1.6,2-1.6c0.7,0,1.5,0.3,1.8,1l-0.7,0.5c-0.2-0.4-0.7-0.6-1.1-0.6c-0.5,0-1,0.2-1,0.7s0.6,0.6,1.3,0.8c1,0.2,1.7,0.5,1.7,1.6
	s-1.1,1.7-2.1,1.7c-0.8,0.1-1.6-0.3-2.1-1L103,168.7z"/>
<path class="st0" d="M97.6,169.2c-0.6,0.7-1.5,1.2-2.4,1.1c-1.5,0-2.7-1.1-2.7-2.6v-0.2c-0.1-1.5,1.1-2.7,2.5-2.8h0.2
	c1.4,0,2.5,1.1,2.5,2.4c0,0.1,0,0.2,0,0.4v0.3h-4.3c0,0.9,0.8,1.7,1.7,1.7c0.7,0,1.3-0.3,1.7-0.8L97.6,169.2z M96.8,167
	c0-0.8-0.6-1.5-1.5-1.5h-0.2c-0.9-0.1-1.7,0.6-1.7,1.5L96.8,167z"/>
<path class="st0" d="M98.9,166.1c0-0.5,0-0.9,0-1.3h0.8v0.9l0,0c0.4-0.6,1-1,1.8-1c0.1,0,0.3,0,0.4,0.1l-0.1,0.9
	c-0.2,0-0.3-0.1-0.5-0.1c-1.1,0-1.6,0.8-1.6,2v2.6h-0.9L98.9,166.1z"/>
<path class="st0" d="M107.9,162.1c0.4,0,0.6,0.4,0.6,0.7c0,0.3-0.3,0.5-0.6,0.6l0,0c-0.3,0-0.6-0.2-0.6-0.6c0,0,0,0,0,0l0,0
	C107.3,162.4,107.6,162.2,107.9,162.1 M107.5,164.9h0.9v5.3h-0.9V164.9z"/>
<path class="st0" d="M113.1,165.6h-1.6v2.7c0,0.7,0,1.2,0.8,1.2c0.3,0,0.5-0.1,0.8-0.2v0.8c-0.3,0.1-0.7,0.2-1,0.2
	c-1.2,0-1.5-0.7-1.5-1.8v-2.9h-1.2v-0.7h1.2v-1.5h0.9v1.5h1.6L113.1,165.6z"/>
<path class="st0" d="M116.4,171.4c-0.3,0.9-0.7,1.5-1.8,1.5c-0.3,0-0.5,0-0.8-0.1l0.1-0.8c0.2,0.1,0.4,0.1,0.6,0.1
	c0.6,0,0.8-0.4,1-0.9l0.3-1l-2.2-5.4h1l1.6,4.2l0,0l1.6-4.2h1L116.4,171.4z"/>
<path class="st0" d="M124.2,164.7c1.5,0,2.8,1.3,2.7,2.8c0,1.5-1.3,2.8-2.8,2.7c-1.5,0-2.7-1.3-2.8-2.8c-0.1-1.5,1.1-2.7,2.6-2.8
	c0,0,0,0,0,0H124.2 M124.2,169.5c1.1,0.1,2-0.8,2.1-1.9c0.1-1.1-0.8-2-1.9-2.1c-1.1-0.1-2,0.8-2.1,1.9c0,0,0,0,0,0v0.1
	c-0.1,1,0.7,1.9,1.7,2c0,0,0,0,0,0L124.2,169.5"/>
<path class="st0" d="M128.6,165.6h-1.2v-0.7h1.2v-1.2c0-1.3,0.4-2.2,1.9-2.2c0.2,0,0.5,0.1,0.7,0.1l-0.1,0.8
	c-0.2-0.1-0.4-0.1-0.6-0.1c-0.9,0-1,0.7-1,1.6v1h1.3v0.8h-1.3v4.6h-0.9V165.6z"/>
<polygon class="st0" points="134.4,162.1 135.3,162.1 135.3,165.5 139.6,165.5 139.6,162.1 140.6,162.1 140.6,170.1 139.6,170.1 
	139.6,166.4 135.3,166.4 135.3,170.1 134.4,170.1 "/>
<path class="st0" d="M144.5,164.7c1.5,0,2.8,1.3,2.7,2.9c0,1.5-1.3,2.8-2.9,2.7c-1.5,0-2.7-1.3-2.7-2.8c-0.1-1.5,1.1-2.7,2.6-2.8
	c0,0,0,0,0,0L144.5,164.7 M144.5,169.5c1.1,0.1,2-0.8,2.1-1.9c0.1-1.1-0.8-2-1.9-2.1s-2,0.8-2.1,1.9c0,0,0,0,0,0v0.1
	c-0.1,1,0.7,1.9,1.7,2c0,0,0,0,0,0L144.5,169.5"/>
<path class="st0" d="M148.5,166.1v-1.3h0.8v0.9l0,0c0.4-0.6,1-1,1.8-1c1.4,0,2,0.9,2,2.2v3.3h-0.9V167c0-0.9-0.4-1.4-1.2-1.4
	c-1.1,0-1.6,0.8-1.6,2v2.6h-0.8L148.5,166.1z"/>
<path class="st0" d="M159.7,169.9c0.2,1.4-0.8,2.8-2.2,3c-0.2,0-0.4,0-0.7,0c-1,0.1-1.9-0.3-2.6-1l0.6-0.7c0.5,0.6,1.2,0.9,2,0.9
	c1.6,0,2-1,2-2.1v-0.8l0,0c-0.4,0.6-1.1,1-1.9,1c-1.5,0.1-2.7-1-2.8-2.5v-0.2c-0.1-1.4,1-2.7,2.4-2.8c0,0,0,0,0,0h0.4
	c0.8,0,1.5,0.4,1.9,1.1l0,0v-0.9h0.9L159.7,169.9z M156.9,169.4c1.1,0,1.9-0.9,1.9-1.9s-0.9-1.9-1.9-1.9s-1.9,0.9-1.9,1.9
	C155,168.5,155.8,169.4,156.9,169.4C156.9,169.4,156.9,169.4,156.9,169.4L156.9,169.4"/>
<path class="st0" d="M172.7,164.7c1.5,0,2.8,1.3,2.7,2.8c0,1.5-1.3,2.8-2.8,2.7c-1.5,0-2.7-1.3-2.7-2.8c-0.1-1.5,1.1-2.7,2.6-2.8
	c0,0,0,0,0,0H172.7 M172.7,169.5c1.1,0.1,2-0.8,2.1-1.9c0.1-1.1-0.8-2-1.9-2.1c-1.1-0.1-2,0.8-2.1,1.9c0,0,0,0,0,0c0,0,0,0.1,0,0.1
	c-0.1,1,0.7,1.9,1.7,2c0,0,0,0,0,0L172.7,169.5"/>
<path class="st0" d="M176.7,166.1c0-0.5-0.1-0.9-0.1-1.3h0.8v0.9l0,0c0.4-0.6,1-1,1.8-1c1-0.1,1.9,0.7,2,1.8c0,0.1,0,0.3,0,0.4v3.3
	h-0.9V167c0-0.9-0.4-1.4-1.2-1.4c-1.1,0-1.6,0.8-1.6,2v2.6h-0.9L176.7,166.1z"/>
<path class="st0" d="M187.9,169.9c0.2,1.4-0.8,2.8-2.2,3c-0.2,0-0.4,0-0.7,0c-1,0-1.9-0.3-2.6-1l0.6-0.7c0.5,0.6,1.2,0.9,2,0.9
	c1.6,0,2-1,2-2.1v-0.8l0,0c-0.4,0.6-1.1,1-1.9,1c-1.5,0.1-2.7-1-2.8-2.5c0,0,0,0,0,0c0-0.1,0-0.1,0-0.2c-0.1-1.4,1-2.7,2.4-2.8
	c0,0,0,0,0,0h0.4c0.8,0,1.5,0.4,1.9,1.1l0,0v-0.9h0.9L187.9,169.9z M185.2,169.4c1.1,0,1.9-0.9,1.9-1.9s-0.9-1.9-1.9-1.9
	c-1.1,0-1.9,0.9-1.9,1.9S184.1,169.4,185.2,169.4L185.2,169.4"/>
<polygon class="st0" points="163.8,162.1 164.7,162.1 164.7,165.6 164.8,165.6 168.5,162.1 169.9,162.1 165.9,165.8 170.1,170.1 
	168.7,170.1 164.8,166.1 164.7,166.1 164.7,170.1 163.8,170.1 "/>
<path class="st0" d="M57.4,147.7h4.8v-0.8h-5.7v-1.4c1.5-0.1,2.9-0.3,4.4-0.6H61l-0.4-0.8h-0.1c-3.1,0.6-6.2,0.9-9.4,0.9H51l0.2,0.8
	h0.1c1.5,0,3-0.1,4.4-0.2v1.3H50v0.8h4.8c-0.6,0.6-1.3,1.2-2,1.6c-1,0.6-2,1.2-3.1,1.5h-0.1l0.3,0.7H50c1.2-0.5,2.3-1.1,3.4-1.8
	c0.8-0.6,1.6-1.2,2.3-2v3.1h-3.4v5.8H60v-5.8h-3.5v-3.1c1.5,1.6,3.4,2.9,5.5,3.7H62l0.7-0.7l-0.1-0.1C60.7,150,58.9,149,57.4,147.7z
	 M59.2,154.1v1.9h-6.1v-1.9H59.2z M53.1,153.4v-1.7h6.1v1.7H53.1z"/>
<path class="st0" d="M125.7,153c-0.9-1.2-1.6-2.6-1.9-4.1h5v-0.9h-6.1c0.2-1.1,0.3-2.3,0.4-3.7v-0.1h-0.8v0.1
	c-0.1,1.4-0.2,2.6-0.4,3.8h-5.1v0.9h5c-0.2,1.3-0.6,2.5-1.2,3.7c-1,1.6-2.5,2.9-4.2,3.7l-0.1,0.1l0.6,0.7h0.1c1.8-0.9,3.4-2.3,4.4-4
	c0.6-1.3,1.1-2.6,1.2-4.1h0.4c0.3,1.6,1,3.2,2,4.6c1,1.4,2.2,2.6,3.6,3.5l0.1,0.1l0.6-0.8l-0.1-0.1
	C127.8,155.4,126.6,154.3,125.7,153z"/>
<path class="st0" d="M107.5,145.6L107.5,145.6c-0.5-0.6-1.1-1.1-1.7-1.4h-0.1l-0.5,0.6l0.1,0.1c0.6,0.4,1.1,0.8,1.5,1.3h-6.9v0.8
	h6.1v2.4h-4.6v6.5h0.9v-5.6h3.7v6.9h0.9v-6.9h3.8v4.2c0,0.5-0.2,0.5-0.3,0.5c-0.7,0-1.3-0.2-1.9-0.4l-0.2-0.1l0.1,0.9h0.1
	c0.6,0.2,1.3,0.4,2,0.4c0.6,0.1,1.1-0.3,1.2-0.9c0-0.1,0-0.2,0-0.3v-5.1h-4.8V147h6.1v-0.8h-5.9L107.5,145.6z"/>
<path class="st0" d="M69.1,147.2L69.1,147.2l0.6-0.6l-0.1-0.1c-0.7-0.6-1.4-1.2-2.2-1.7l-0.1-0.1l-0.5,0.6l0.1,0.1
	C67.8,146,68.5,146.5,69.1,147.2z"/>
<path class="st0" d="M76.3,149.6h2.9v-0.8h-3.1V147h2.4v-0.7h-2.4v-2.1h-0.8v2.1h-2.3v-2.1h-0.8v2.1h-2v0.7h2v1.8h-2.8v0.8H72
	c-0.2,0.5-0.5,0.9-0.8,1.3c-0.5,0.7-1.2,1.2-1.9,1.7l-0.1,0.1l0.6,0.6h0.1c0.7-0.5,1.3-1.1,1.8-1.7v3.8c-0.1,0.4,0.1,0.8,0.4,1.1
	c0.3,0.2,1.2,0.3,4,0.3c1.3,0,1.8-0.1,2-0.6c0.2-0.6,0.2-1.2,0.2-1.9v-0.1l-0.9-0.4v0.3c0,0.5,0,1-0.1,1.5c-0.1,0.3-0.5,0.3-1.2,0.3
	c-1.2,0.1-2.3,0-3.4-0.2c-0.3-0.2-0.2-0.2-0.2-0.4v-1.4h4v-2.7c0.7,0.7,1.4,1.2,2.2,1.7h0.1l0.6-0.7l-0.1,0
	C78.1,151.5,77.1,150.7,76.3,149.6z M72.5,153.1v-1.5h3.2v1.5H72.5z M75.3,147v1.8h-2.3V147H75.3z M72.2,150.9
	c0.3-0.4,0.5-0.8,0.7-1.3h2.4c0.3,0.5,0.6,0.9,1,1.3H72.2z"/>
<path class="st0" d="M69.4,151.6l-0.7-0.5v0.1c-0.5,1.8-1.3,3.5-2.3,5.1l-0.1,0.1l0.7,0.5l0.1-0.1C68.1,155.3,68.9,153.5,69.4,151.6
	L69.4,151.6z"/>
<path class="st0" d="M68.5,150.4l0.1,0.1l0.5-0.6l-0.1-0.1c-0.6-0.7-1.4-1.4-2.2-1.9l-0.1-0.1l-0.5,0.6l0.1,0.1
	C67.2,149.1,67.9,149.7,68.5,150.4z"/>
<path class="st0" d="M134.2,150.7h10.3v1.5h0.8V150h-0.9l0.1-5.1h-3.2v0.8h2.3v0.9h-2.3v0.8h2.2v0.9h-2.5v0.8h2.4v1h-2.9l0.5-0.6
	l-0.1-0.1l-0.9-0.8c0.3-0.3,0.6-0.6,0.8-0.9l0.1-0.1l-0.3-0.3l0.5-0.5l-0.1-0.1l-0.8-0.7c0.3-0.3,0.6-0.7,0.9-1.1l0.1-0.1l-0.5-0.5
	l-0.1,0.1c-0.3,0.4-0.6,0.8-1,1.1c-0.4-0.3-0.8-0.6-1.3-0.9h-0.1l-0.5,0.5l0.1,0.1l1.2,0.8c-0.4,0.3-0.9,0.6-1.4,0.8l-0.1,0.1
	l0.4,0.6h0.1c0.6-0.3,1.1-0.6,1.6-1c0.3,0.2,0.6,0.5,0.8,0.7l0,0c-0.2,0.4-0.5,0.7-0.8,1c-0.4-0.3-0.8-0.5-1.2-0.8l-0.1-0.1
	l-0.5,0.6l0.1,0.1c0.3,0.2,0.7,0.5,1,0.7c-0.4,0.3-0.9,0.6-1.3,0.8h-0.1l0.4,0.6h-2.8v-1h2.5v-0.8h-2.5v-0.8h2.4v-0.8h-2.4v-0.6
	c0.9-0.2,1.7-0.5,2.6-0.9h0.1l-0.4-0.7h-0.1c-0.9,0.4-1.9,0.7-2.8,0.9h-0.1l0.1,4.7h-0.9v2.2h0.8L134.2,150.7z M138,149.9
	c0.6-0.2,1.1-0.6,1.6-0.9c0.4,0.3,0.7,0.6,1,0.9l0.1,0.1L138,149.9L138,149.9z"/>
<path class="st0" d="M145.7,153.8h-6.1v-0.1c1.3-0.4,2.5-0.9,3.7-1.6h0.1v-0.7h-8v0.8h6.4c-0.7,0.3-1.5,0.6-2.3,0.8l0,0h-0.2l0,0
	l-0.4,0.1h-0.2h-0.1l0.1,0.1c0.1,0.2,0.2,0.3,0.2,0.5H133v0.8h6c0.1,0.3,0.1,0.7,0.1,1c0,0.4,0,0.5-0.1,0.6
	c-0.1,0.1-0.2,0.1-0.3,0.1c-0.5,0-1-0.1-1.4-0.3l-0.2-0.1l0.1,0.9h0.1c0.5,0.2,1,0.3,1.6,0.3c0.3,0,0.6-0.1,0.8-0.2
	c0.2-0.2,0.3-0.6,0.3-1.2c0-0.3,0-0.7-0.1-1h5.8L145.7,153.8z"/>
<path class="st0" d="M87.3,152.8l-0.1-0.8l-0.1,0.1c-0.4,0.2-0.8,0.4-1.2,0.6v-3.7h1.4v-0.7h-1.4v-3.5h-0.8v3.5h-1.7v0.7h1.6v4
	c-0.6,0.2-1.1,0.4-1.8,0.6h-0.1l0.4,0.8h0.1C84.9,153.9,86.1,153.4,87.3,152.8L87.3,152.8z"/>
<path class="st0" d="M95.5,154.2c0,0.6-0.1,1.2-0.3,1.8c0,0.2-0.2,0.2-0.2,0.2s-0.5-0.3-0.8-1.1c-0.2-0.5-0.4-1-0.6-1.4l0,0
	c0.9-1.5,1.5-3.1,1.7-4.8v-0.1l-0.8-0.2v0.1c-0.2,1.3-0.6,2.6-1.2,3.8c-0.1-0.4-0.2-0.9-0.3-1.4c-0.2-1.2-0.3-2.3-0.3-3.5H96v-0.8
	h-3.3c0-0.8,0-1.6,0-2.5v-0.1h-0.9v0.1c0,1,0,1.8,0,2.5h-4v4c0,1.2-0.1,2.3-0.6,3.4c-0.4,0.8-1,1.5-1.7,2.1l-0.1,0.1l0.5,0.6
	l0.1-0.1c0.8-0.6,1.4-1.4,1.8-2.3c0.5-1.2,0.7-2.5,0.7-3.8v-0.6h2c0,1.1-0.1,2.2-0.3,3.2c-0.1,0.4-0.3,0.4-0.4,0.4
	c-0.4,0-0.8-0.1-1.1-0.2h-0.1v0.9h0.1c0.4,0.1,0.9,0.2,1.3,0.2c0.5,0,0.9-0.3,1-0.8c0.3-1.4,0.5-2.9,0.4-4.4l0,0h-2.8v-1.9h3.2
	c0.1,1.3,0.2,2.7,0.4,4c0.1,0.6,0.3,1.3,0.5,1.9c-0.8,1-1.7,1.9-2.8,2.6l-0.1,0.1l0.5,0.6h0.1c1-0.6,1.8-1.4,2.6-2.3
	c0.2,0.4,0.3,0.9,0.6,1.3c0.4,0.8,0.9,1.2,1.4,1.3c0.3,0,0.6-0.1,0.8-0.4c0.3-0.6,0.4-1.3,0.5-2v-0.1L95.5,154.2L95.5,154.2z"/>
<path class="st0" d="M94.5,146.6v0.1l0.7-0.5v-0.1c-0.3-0.6-0.7-1.2-1.2-1.7l-0.1-0.1l-0.7,0.4l0.1,0.1
	C93.9,145.4,94.2,146,94.5,146.6z"/>
<path class="st1" d="M231.9,55.8L113.5,86.6c-0.2,0.1-0.5,0.2-0.7,0.3c-0.2,0.2-0.4,0.3-0.6,0.6l-25.7,34c-0.1,0.1-0.1,0.2-0.1,0.4
	c0,0.2,0.1,0.4,0.3,0.4l25.7,5.6l1.5,0.5l4.8,1l3.3,0.5l32.3,7l2.9,0.9l3.7,0.8l2.5,0.3l50.5,10.9L231.9,55.8z"/>
<linearGradient id="SVGID_1_" gradientUnits="userSpaceOnUse" x1="291.8641" y1="338.6204" x2="271.8441" y2="432.0004" gradientTransform="matrix(1 0 0 1 -56.54 -282.7)">
	<stop  offset="0" style="stop-color:#BF2169"/>
	<stop  offset="0.19" style="stop-color:#B62165"/>
	<stop  offset="0.49" style="stop-color:#9E215B"/>
	<stop  offset="0.88" style="stop-color:#76204B"/>
	<stop  offset="1" style="stop-color:#682045"/>
</linearGradient>
<path class="st2" d="M235.6,67.7c0.1,0.3,0.1,0.6,0.1,0.9c0,0.3,0,0.5-0.1,0.8l-20.5,79.8c-0.1,0.5-0.4,0.8-0.6,0.8l-0.3-0.1
	l17.9-94.4L235.6,67.7z"/>
<linearGradient id="SVGID_00000183213782771574068660000006459139604277744572_" gradientUnits="userSpaceOnUse" x1="281.0109" y1="336.7464" x2="206.2509" y2="415.4564" gradientTransform="matrix(1 0 0 1 -56.54 -282.7)">
	<stop  offset="0" style="stop-color:#FBD5E0"/>
	<stop  offset="0.35" style="stop-color:#BF2169"/>
	<stop  offset="1" style="stop-color:#682045"/>
</linearGradient>
<path style="fill:url(#SVGID_00000183213782771574068660000006459139604277744572_);" d="M214.3,149.9l17.9-94.4L113.5,86.4
	c-0.3,0.1-0.5,0.2-0.8,0.3c-0.2,0.2-0.5,0.4-0.6,0.6l-25.9,34.2c-0.2,0.2-0.2,0.5,0,0.7c0,0,0,0,0,0c0.1,0.1,0.2,0.1,0.3,0.2
	l27.5,5.9c-2-0.7-3.7-1.8-5.1-3.3c-2.5-3.1-3.6-7.2-2.9-11.2c1.5-10.8,9.2-15.6,16.4-15.6c3.2-0.1,6.4,0.6,9.2,2l-0.4,4.8h-3.5
	l0.2-1.9c-1.3-0.8-5.9-1.5-9.7,0c-4.5,2.1-6.4,7.3-6.7,10.9c-0.2,2.6,0.2,5.9,2,8.3s6.8,4.3,12.7,2.3c2.6-0.9,3.8,1.8,3.8,1.8
	l-0.3,0.2c-3.2,2-7,3-10.9,2.8l38.5,8.3l5.4-9.8l-6-18.7h-2.5l0.3-3.4h6.4l5.1,16l7.1-13c1-1.9,3-3.1,5.1-3h1.3l-17.9,31.9
	c-0.2,0.3-0.4,0.6-0.6,0.9L214.3,149.9z M132.3,105.7h7.7l-2.1,23.7c0,0-5.1,0.2-4.6-4.9l1.3-15.4H132L132.3,105.7z M140.4,101.5
	c-0.1,1.4-1.3,2.5-2.7,2.5c-1.2,0-2.3-1-2.3-2.2c0,0,0,0,0,0c0-0.1,0-0.2,0-0.3c0.2-1.4,1.3-2.5,2.7-2.5c1.3,0,2.3,1,2.3,2.2
	c0,0,0,0,0,0C140.4,101.3,140.4,101.4,140.4,101.5z M144.4,101.8l5.2-1.2l-0.4,5.1h3.9l-0.3,3.3h-3.9l-1.2,13.1
	c-0.2,1.1,0,2.2,0.4,3.1c0.4,0.6,1.1,1,1.9,0.9c1.5-0.1,2.7,1,2.8,2.5c0,0,0,0,0,0c0,0.1,0,0.2,0,0.3c-1.2,0.3-2.5,0.4-3.7,0.5
	c-2.4,0-4.2-0.6-5.2-2s-1.4-3.3-1.2-5.9L144.4,101.8z M204.3,115.9c-0.1,2.1-0.5,4.2-1,6.2c-0.5,1.4-1.3,2.7-2.3,3.9
	c-2,2.3-5,3.4-8.7,3.4s-6.7-1-8.3-3s-2.1-5.1-1.7-9.3l1-11.4h-3.2l0.3-3.3h8.2l-0.3,3.3l-0.9,10.2c-0.2,1.8-0.2,3.7-0.1,5.6
	c0.1,1,0.5,1.9,1.1,2.7c1.1,1.4,2.8,2.1,4.6,2c1.8,0,3.6-0.6,4.9-1.9c1.3-1.2,2-3.7,2.4-7.5l1-11.3c0.2-1.8,1.8-3.1,3.6-3h0.8
	L204.3,115.9z"/>
<rect x="42.6" y="14.2" class="st4" width="200" height="200"/>
</svg>
